# xmcd CD database file
#
# Track frame offsets:
#	150
#	22487
#	45967
#	65707
#	86837
#	111020
#	128090
#	147262
#	167462
#	185532
#	206807
#
# Disc length: 3029 seconds
#
# Revision: 1
# Processed by: cddbd v1.5.2PL0 Copyright (c) Steve Scherf et al.
# Submitted via: CDex 1.51
#
DISCID=9f0bd30b
DTITLE=FREQUENCY - WHEN DREAM AND FATE COLLIDE
DYEAR=2006
DGENRE=Heavy Metal
TTITLE0=OBLIVION
TTITLE1=PITCH BLACK
TTITLE2=DISTANT LIGHT
TTITLE3=TIME
TTITLE4=WHEN DREAM AND FATE COLLIDE
TTITLE5=FACING DESTINY
TTITLE6=FIRE AND STEEL
TTITLE7=THE WICKED IS BORN
TTITLE8=DIMENSION FOR THE WEAK
TTITLE9=OBLIVION
TTITLE10=TIME
EXTD=YEAR: 2006
EXTT0=
EXTT1=
EXTT2=
EXTT3=
EXTT4=
EXTT5=
EXTT6=
EXTT7=
EXTT8=
EXTT9=
EXTT10=
PLAYORDER=
